# xmcd CD database file
#
# Track frame offsets:
#	150
#	17094
#	38818
#	58160
#	75222
#	90066
#	105348
#	125449
#	146656
#	164237
#	188596
#	209128
#
# Disc length: 3040 seconds
#
# Revision: 0
# Processed by: cddbd v1.5.2PL0 Copyright (c) Steve Scherf et al.
# Submitted via: CDex 1.51
#
DISCID=990bde0c
DTITLE=Turnpike Troubadours - Diamonds and Gasoline
DYEAR=2010
DGENRE=Country
TTITLE0=Every Girl
TTITLE1=7&7
TTITLE2=1968
TTITLE3=Down On Washington
TTITLE4=Kansas City Southern
TTITLE5=Whole Damn Town
TTITLE6=Leaving and Lonely
TTITLE7=The Funeral
TTITLE8=Diamonds and Gasoline
TTITLE9=Shreveport
TTITLE10=Evangeline
TTITLE11=Long Hot Summer Day
EXTD=YEAR: 2010
EXTT0=
EXTT1=
EXTT2=
EXTT3=
EXTT4=
EXTT5=
EXTT6=
EXTT7=
EXTT8=
EXTT9=
EXTT10=
EXTT11=
PLAYORDER=
